<?xml version="1.0" standalone="no"?>
<!DOCTYPE svg PUBLIC "-//W3C//DTD SVG 20010904//EN"
 "http://www.w3.org/TR/2001/REC-SVG-20010904/DTD/svg10.dtd">
<svg version="1.0" xmlns="http://www.w3.org/2000/svg"
 width="900.000000pt" height="597.000000pt" viewBox="0 0 900.000000 597.000000"
 preserveAspectRatio="xMidYMid meet">

<g transform="translate(0.000000,597.000000) scale(0.100000,-0.100000)"
fill="#000000" stroke="none">
<path d="M4167 5821 c-14 -17 -66 -103 -117 -193 -51 -90 -118 -206 -150 -258
-95 -160 -103 -179 -87 -204 19 -27 100 -71 119 -63 9 3 18 17 22 32 4 15 26
59 50 98 23 40 61 106 84 147 22 41 77 136 121 210 45 74 81 146 81 159 0 22
-71 101 -91 101 -4 0 -18 -13 -32 -29z"/>
<path d="M6762 5473 c-12 -10 -43 -58 -70 -108 -74 -135 -163 -291 -215 -376
-61 -100 -61 -112 6 -145 28 -15 108 -59 177 -99 189 -110 419 -240 575 -325
77 -42 181 -100 230 -129 50 -29 140 -82 202 -116 61 -35 129 -75 150 -89 21
-14 43 -26 50 -26 20 0 55 54 177 272 63 114 129 230 147 258 22 36 29 58 25
75 -4 14 -10 25 -14 25 -5 0 -55 28 -113 62 -233 137 -268 157 -369 210 -58
30 -168 91 -245 135 -209 120 -427 243 -544 307 -57 32 -114 64 -126 72 -20
13 -25 12 -43 -3z"/>
<path d="M3195 5307 c-226 -76 -338 -295 -256 -504 29 -75 99 -160 160 -197
95 -56 347 -196 355 -196 4 0 51 -27 106 -60 55 -33 103 -60 108 -60 5 0 72
-37 148 -83 76 -46 180 -105 229 -132 50 -27 108 -62 129 -77 21 -15 44 -28
49 -28 6 0 28 -12 49 -26 35 -25 40 -26 56 -11 9 9 35 48 57 87 22 38 70 121
106 183 149 256 200 351 197 371 -2 12 -22 30 -53 47 -27 14 -113 62 -190 104
-77 43 -176 97 -220 120 -141 74 -257 138 -350 195 -33 20 -103 60 -155 89
-52 29 -147 82 -210 118 -111 62 -118 65 -195 69 -50 2 -95 -1 -120 -9z m208
-188 c84 -23 151 -115 151 -209 0 -130 -120 -236 -244 -215 -119 20 -210 152
-181 262 21 77 71 131 147 158 47 17 77 18 127 4z"/>
<path d="M6442 4753 c-10 -16 -38 -62 -61 -104 -22 -43 -47 -79 -55 -82 -8 -3
-38 7 -68 23 -78 41 -142 48 -205 20 -28 -12 -62 -33 -75 -48 -14 -15 -66 -99
-115 -187 -447 -788 -487 -859 -604 -1060 -60 -103 -64 -114 -67 -182 -4 -60
0 -80 21 -125 57 -123 160 -180 286 -160 36 6 78 21 94 32 41 31 53 21 59 -47
7 -74 34 -128 88 -177 89 -80 174 -95 287 -50 40 16 68 23 74 17 5 -5 13 -34
18 -64 5 -30 14 -66 20 -80 15 -40 68 -96 117 -125 78 -46 208 -42 264 6 13
11 26 20 30 20 17 0 29 -29 28 -65 -2 -59 37 -139 93 -189 137 -123 342 -77
430 97 12 23 52 94 88 157 37 63 94 162 126 220 32 58 80 141 105 185 26 44
75 132 110 195 35 63 97 171 138 240 129 214 146 252 144 316 -3 109 -57 210
-134 250 -15 8 -28 20 -28 28 0 7 28 59 62 116 46 77 59 106 52 118 -6 9 -72
51 -148 94 -76 43 -179 102 -229 131 -51 30 -200 114 -332 187 -132 73 -313
175 -403 227 -90 51 -169 93 -177 93 -7 0 -22 -12 -33 -27z"/>
<path d="M4750 4553 c-46 -82 -102 -182 -125 -223 -23 -41 -84 -149 -135 -240
-51 -91 -108 -186 -127 -213 -47 -67 -44 -91 15 -120 46 -23 233 -128 342
-192 30 -18 96 -54 145 -80 50 -27 101 -56 115 -65 14 -10 50 -30 80 -45 30
-15 63 -34 72 -42 9 -8 26 -13 39 -11 21 3 52 53 229 370 21 37 47 80 57 95
11 15 42 69 69 118 26 50 74 134 106 188 32 54 58 107 58 116 0 24 -22 42
-115 92 -44 23 -129 70 -190 104 -105 59 -160 91 -403 233 -59 34 -116 62
-128 62 -18 0 -38 -28 -104 -147z"/>
<path d="M3328 4363 c-8 -10 -68 -115 -133 -233 -65 -118 -131 -234 -147 -258
-15 -24 -28 -51 -28 -62 0 -20 76 -70 108 -70 25 0 27 3 104 140 154 275 199
353 220 380 28 38 15 71 -41 100 -49 25 -64 25 -83 3z"/>
<path d="M2869 3747 c-33 -22 -70 -79 -176 -271 -31 -55 -78 -141 -105 -190
-27 -49 -70 -121 -94 -160 -25 -39 -73 -120 -106 -181 -34 -60 -79 -141 -101
-180 -22 -38 -70 -124 -107 -190 -37 -66 -80 -142 -97 -170 -55 -91 -147 -249
-188 -325 -23 -41 -77 -136 -120 -210 -43 -74 -106 -184 -140 -245 -34 -60
-86 -150 -115 -200 -55 -93 -121 -210 -173 -305 -16 -30 -73 -129 -125 -220
-166 -286 -150 -244 -153 -408 -2 -143 4 -173 33 -158 18 9 157 99 259 167
104 70 113 80 181 204 30 55 93 165 139 245 47 80 118 204 157 275 40 72 91
162 114 200 49 83 98 169 163 285 26 47 82 146 124 220 43 74 102 178 131 230
29 52 83 147 120 210 37 63 104 178 148 255 44 77 97 169 118 205 21 36 53 94
72 130 36 68 126 225 198 345 23 39 63 110 89 158 41 76 47 94 42 129 -4 27
-15 51 -34 69 -34 33 -174 109 -201 109 -10 0 -34 -10 -53 -23z"/>
<path d="M7657 3078 c-8 -13 -47 -81 -87 -153 -148 -265 -216 -384 -307 -543
-51 -90 -93 -172 -93 -182 0 -14 44 -43 168 -111 92 -50 179 -100 193 -110 15
-10 72 -43 128 -74 55 -30 147 -80 204 -111 120 -65 276 -156 330 -192 48 -32
60 -26 103 49 17 30 58 101 91 159 33 58 94 164 135 235 41 72 101 177 133
235 32 58 69 122 82 143 13 21 23 48 21 60 -3 23 -39 45 -391 239 -109 60
-217 121 -240 135 -94 59 -118 73 -269 156 -86 48 -163 87 -172 87 -9 0 -22
-10 -29 -22z"/>
<path d="M5161 2853 c-27 -96 -7 -178 57 -242 50 -49 83 -63 239 -96 96 -20
210 -57 308 -99 136 -58 336 -153 413 -195 97 -53 104 -55 130 -31 40 38 29
55 -63 100 -74 35 -92 49 -129 100 -24 32 -47 75 -50 95 -9 45 -23 51 -95 35
-49 -10 -67 -10 -120 4 -120 31 -191 89 -240 198 -35 76 -43 83 -71 68 -11 -6
-52 -11 -90 -11 -81 0 -169 33 -216 82 -39 40 -61 38 -73 -8z"/>
<path d="M540 1735 c-14 -8 -52 -14 -86 -15 -35 0 -74 -7 -90 -15 -16 -8 -38
-15 -49 -15 -11 -1 -31 -7 -44 -14 -14 -8 -40 -12 -61 -9 -50 7 -65 -13 -52
-69 13 -53 83 -224 117 -285 14 -25 25 -50 25 -55 0 -6 11 -23 24 -39 13 -16
29 -51 35 -79 12 -57 30 -95 72 -153 16 -22 31 -56 35 -76 8 -42 35 -99 74
-156 18 -26 30 -60 35 -95 4 -38 15 -67 36 -95 45 -61 109 -172 109 -190 0 -9
11 -37 25 -63 14 -26 25 -52 25 -58 0 -15 23 -24 36 -16 6 5 7 99 2 252 -4
135 -8 264 -8 288 0 23 -9 60 -20 82 -24 48 -25 73 -3 155 16 61 16 65 -6 149
-19 73 -21 91 -11 116 9 22 9 37 0 64 -7 22 -10 80 -9 144 3 104 2 110 -27
162 -48 85 -124 120 -184 85z"/>
<path d="M2443 1407 c-11 -7 -42 -41 -68 -77 -26 -36 -67 -85 -91 -110 -64
-65 -102 -117 -109 -149 -3 -15 -22 -43 -41 -62 -19 -19 -43 -53 -54 -76 -10
-22 -33 -54 -50 -70 -18 -15 -45 -47 -59 -70 -15 -24 -49 -66 -77 -95 -61 -65
-96 -113 -113 -155 -7 -17 -21 -39 -32 -49 -10 -9 -19 -23 -19 -30 0 -7 -13
-28 -29 -46 -15 -18 -35 -46 -44 -63 -8 -16 -29 -42 -46 -58 -25 -22 -31 -35
-31 -68 0 -77 39 -101 94 -58 14 11 41 25 59 30 17 5 67 38 109 74 43 36 87
65 98 65 20 0 57 30 76 61 5 8 23 24 40 35 69 43 173 115 184 129 7 8 18 15
25 15 23 0 103 50 119 75 9 14 22 25 29 25 7 0 31 13 53 29 21 16 50 32 64 36
14 4 44 25 67 46 24 22 49 39 57 39 26 0 38 29 41 104 2 59 -1 83 -16 113 -11
21 -19 58 -19 86 0 26 -6 60 -14 75 -7 15 -19 52 -26 82 -23 99 -28 107 -75
119 -55 14 -74 13 -102 -2z"/>
</g>
</svg>
